<svg xmlns="http://www.w3.org/2000/svg" viewBox="0 0 512 512">
  <defs>
    <style>
    .a {
      fill: #777bb3;
    }
    
    .b {
      fill: #fff;
    }
    
    .c {
      fill: #231f20;
    }
    </style>
  </defs>
  <rect class="a" width="512" height="512"/>
  <path class="b" d="M41.51,158.74l147.75,0,8.83-49.46,92.61.33-6.47,49.49,188.26-.47c69.26,11.14,42.66,193.53-30.28,195.31-1.13,0-2.27.18-3.42.12l-45.62.17-10.38,50.27-94.81,0,9.87-50.22H100.06l-9.75,50.27L0,404.36V372.74Z"/>
  <g>
    <path class="c" d="M131.86,187.37q28.74.25,41.82,17.59t8.84,47.35a102.34,102.34,0,0,1-7.33,26.91A79.56,79.56,0,0,1,159.64,303q-12.21,13.46-26,17.07a112.62,112.62,0,0,1-28.71,3.63H75.61l-8.94,49.16H32.75L66.47,187.37ZM95,216.87l-14.1,77.62a21.34,21.34,0,0,0,3.25.26h3.29q23.37.25,39-5.05t20.75-37.65q4.2-27.17-8.95-31.3t-32.72-3.88c-1.83.17-3.59.26-5.3.26H95Z"/>
    <path class="c" d="M258,138l-9,49.42h30.25q24.79.52,37.19,10.87t7.37,39.33l-15.66,86.16H274l15-82.28q2.34-12.94-1.54-18.37t-16.83-5.44l-27-.26L224.2,323.73H190.53L224.29,138Z"/>
    <path class="c" d="M427.83,187.37q28.74.25,41.82,17.59t8.84,47.35a102.73,102.73,0,0,1-7.33,26.91A79.94,79.94,0,0,1,455.61,303q-12.21,13.46-26,17.07a112.7,112.7,0,0,1-28.72,3.63H371.57l-8.93,49.16H328.72l33.72-185.52ZM391,216.87l-14.11,77.62a21.44,21.44,0,0,0,3.25.26h3.3q23.37.25,39-5.05t20.75-37.65q4.2-27.17-9-31.3t-32.73-3.88c-1.82.17-3.58.26-5.29.26h-5.25Z"/>
  </g>
</svg>
