<?xml version="1.0" encoding="utf-8"?>
<svg version="1.0" xmlns="http://www.w3.org/2000/svg" viewBox="0 0 512 512">
<rect width="512" height="512" fill="#777BB3"/>
<g>
	<path fill="#FFFFFF" d="M62.5,190.5h68c20,0.2,34.5,5.8,43.4,17c9,11.2,11.9,26.4,8.9,45.7c-1.2,8.8-3.8,17.5-7.9,26
		c-3.9,8.5-9.3,16.2-16.3,23c-8.5,8.7-17.5,14.2-27.2,16.5c-9.7,2.3-19.6,3.5-30,3.5H70.9l-9.7,47.6H25.9l36.4-179.7l0,0
		 M92.2,219.2L77,294c1,0.2,2,0.2,3,0.2c1.2,0,2.4,0,3.5,0c16.2,0.2,29.7-1.4,40.5-4.7c10.8-3.5,18.1-15.6,21.8-36.4
		c3-17.4,0-27.5-9.1-30.1c-8.9-2.7-20.2-3.9-33.7-3.7c-2,0.2-4,0.2-5.8,0.2c-1.7,0-3.5,0-5.3,0L92.2,219.2"/>
	<path fill="#FFFFFF" d="M222.9,142.9h35.4l-9.9,47.6h31.6c17.3,0.3,30.1,3.8,38.6,10.5c8.6,6.7,11.2,19.3,7.6,38l-17,83.2h-35.6
		l16.3-79.7c1.7-8.4,1.2-14.3-1.5-17.8c-2.7-3.5-8.6-5.3-17.6-5.3l-28.3-0.3l-20.9,103h-35.1l36.7-179.9l0,0"/>
	<path fill="#FFFFFF" d="M364.4,190.5h68c20,0.2,34.5,5.8,43.4,17c9,11.2,11.9,26.4,8.9,45.7c-1.2,8.8-3.8,17.5-7.9,26
		c-3.9,8.5-9.3,16.2-16.3,23c-8.5,8.7-17.5,14.2-27.2,16.5c-9.7,2.3-19.6,3.5-30,3.5h-30.6l-9.7,47.6h-35.4l36.4-179.7l0,0
		 M394,219.2L378.8,294c1,0.2,2,0.2,3,0.2c1.2,0,2.4,0,3.5,0c16.2,0.2,29.7-1.4,40.5-4.7c10.8-3.5,18.1-15.6,21.8-36.4
		c3-17.4,0-27.5-9.1-30.1c-8.9-2.7-20.2-3.9-33.7-3.7c-2,0.2-4,0.2-5.8,0.2c-1.7,0-3.5,0-5.3,0L394,219.2"/>
</g>
</svg>
