#define conv_test_xbm_width 16
#define conv_test_xbm_height 5
static unsigned char conv_test_xbm_bits[] = {
 0x4c, 0x0d, 0x54, 0x15, 0xcc, 0x0d, 0x44, 0x05, 0x44, 0x05};