#define Xbitmap_width 75
#define Xbitmap_height 50
static unsigned char Xbitmap_bits[] = {
        0xfd, 0xdb, 0xf5, 0xbf, 0xef, 0x7b, 0xbb, 0xae, 0xaa, 
        0x07, 0xff, 0x77, 0xbf, 0xea, 0xba, 0xee, 0xef, 0xfb, 
        0xff, 0x06, 0xff, 0xdf, 0xed, 0xbf, 0xdf, 0xbb, 0xba, 
        0x5e, 0x55, 0x05, 0xff, 0x77, 0xbf, 0xf5, 0xe2, 0xee, 
        0xef, 0xeb, 0x55, 0x03, 0xff, 0xdf, 0x75, 0x1f, 0xc0, 
        0x7b, 0xfb, 0xfe, 0xaa, 0x06, 0xff, 0x77, 0xdf, 0x07, 
        0xe8, 0xdf, 0xae, 0xaf, 0xa5, 0x06, 0x5f, 0xdf, 0xeb, 
        0x81, 0xe2, 0xff, 0xf7, 0xfa, 0x92, 0x06, 0xff, 0xf7, 
        0x7e, 0x20, 0xf5, 0xff, 0xbe, 0x6f, 0xab, 0x06, 0xff, 
        0x7f, 0x5b, 0x90, 0xe0, 0xff, 0xdb, 0xf6, 0x55, 0x05, 
        0xff, 0xc7, 0x3f, 0x54, 0xf4, 0xff, 0xff, 0x1f, 0x29, 
        0x07, 0xdf, 0x3d, 0x09, 0x02, 0xea, 0xff, 0x57, 0xf2, 
        0xd6, 0x05, 0x7d, 0xff, 0x84, 0xea, 0xff, 0xff, 0x0f, 
        0xf9, 0x7d, 0x07, 0xd7, 0x8d, 0x47, 0xf5, 0xc3, 0xfe, 
        0xff, 0xdf, 0xdd, 0x05, 0x7b, 0xcd, 0xc7, 0xfa, 0xe8, 
        0xfe, 0x7f, 0x9f, 0x75, 0x07, 0xdd, 0xab, 0xa0, 0x1a, 
        0x00, 0xe1, 0x3b, 0xf0, 0xdf, 0x06, 0x6f, 0x3d, 0x11, 
        0x0c, 0xab, 0xf6, 0xff, 0xf7, 0xf4, 0x03, 0xfd, 0xb3, 
        0xa1, 0x86, 0x4b, 0xfe, 0xff, 0x6d, 0xbf, 0x06, 0xb7, 
        0xba, 0x10, 0xc3, 0x22, 0x6d, 0xff, 0xe7, 0xea, 0x07, 
        0xed, 0xbb, 0x88, 0xf2, 0x57, 0xf7, 0xff, 0x6b, 0xbe, 
        0x02, 0x7f, 0xb3, 0xa4, 0x81, 0x00, 0xfc, 0xff, 0x6f, 
        0xef, 0x07, 0xd5, 0xbb, 0x90, 0x08, 0x72, 0xff, 0xff, 
        0x6b, 0xfa, 0x06, 0x7f, 0x33, 0x48, 0x09, 0xa8, 0xf7, 
        0xff, 0x6f, 0xaf, 0x03, 0x2d, 0xb5, 0xa4, 0x08, 0x00, 
        0xfc, 0xff, 0xef, 0xe6, 0x06, 0x97, 0x3a, 0xc8, 0xac, 
        0xad, 0x76, 0xff, 0x67, 0x90, 0x07, 0x4d, 0x34, 0xa4, 
        0x58, 0x77, 0xa9, 0xff, 0xef, 0xaa, 0x06, 0x97, 0xb2, 
        0xff, 0x5f, 0xdb, 0xd2, 0x59, 0x71, 0x84, 0x03, 0xad, 
        0xb4, 0xfe, 0x57, 0xa5, 0xec, 0x28, 0x61, 0x55, 0x07, 
        0x17, 0xba, 0xff, 0xff, 0xff, 0xb6, 0x94, 0x70, 0xa2, 
        0x05, 0xdd, 0xb3, 0xfd, 0x07, 0x52, 0xff, 0x28, 0x61, 
        0xab, 0x07, 0xb7, 0xba, 0xff, 0xbf, 0x88, 0xea, 0x94, 
        0xe8, 0xfe, 0x02, 0xfd, 0x3b, 0xff, 0xff, 0x57, 0x00, 
        0x9a, 0x70, 0xba, 0x07, 0xb7, 0xb3, 0xff, 0xdf, 0x26, 
        0x6f, 0x44, 0x6c, 0xef, 0x06, 0xed, 0xba, 0xfe, 0xbf, 
        0x93, 0x1a, 0x2b, 0x68, 0xb5, 0x03, 0xdf, 0xb5, 0xfb, 
        0xff, 0x49, 0x1f, 0x45, 0xe4, 0xfe, 0x06, 0xb5, 0x97, 
        0xff, 0xff, 0x97, 0x86, 0x22, 0x0e, 0xaf, 0x07, 0x7f, 
        0x23, 0x60, 0x1f, 0x20, 0xc0, 0x12, 0xa8, 0xf6, 0x05, 
        0xd5, 0x85, 0xf7, 0xff, 0x5b, 0xf0, 0x2a, 0x0b, 0x5d, 
        0x07, 0x7f, 0x81, 0xff, 0xff, 0x3b, 0x7e, 0x1d, 0x8f, 
        0xfc, 0x05, 0xd5, 0xa3, 0xd6, 0xff, 0xff, 0xbf, 0x8a, 
        0x4e, 0x55, 0x07, 0xff, 0x8a, 0x00, 0xff, 0xbf, 0x44, 
        0x02, 0xa8, 0xfe, 0x05, 0xb5, 0xd5, 0xff, 0xff, 0xbf, 
        0x12, 0xc1, 0x9f, 0xaa, 0x02, 0xee, 0xbb, 0x6b, 0xff, 
        0x5f, 0xa4, 0xf0, 0x76, 0x55, 0x05, 0xb5, 0xee, 0xfd, 
        0xf7, 0x3f, 0x29, 0xa8, 0xdd, 0xad, 0x00, 0xfe, 0x7b, 
        0xaf, 0xfe, 0xbf, 0x04, 0xfc, 0xfb, 0x75, 0x01, 0xf5, 
        0xad, 0xfd, 0xdb, 0x3f, 0x01, 0xb7, 0x56, 0xbd, 0x02, 
        0x7c, 0xff, 0xb7, 0xfe, 0x37, 0x60, 0xed, 0xff, 0x6d, 
        0x01, 0xee, 0x55, 0xed, 0x57, 0x1f, 0xaa, 0x7f, 0x55, 
        0x55, 0x01, 0xbb, 0xff, 0x7f, 0xfd, 0xb5, 0xfa, 0xd5, 
        0xff, 0x55, 0x05, 0x55, 0x54, 0xd5, 0x6f, 0xdf, 0x6f, 
        0xff, 0xaa, 0x2a, 0x02, 0x57, 0xff, 0x7f, 0xb5, 0x75, 
        0xb5, 0x55, 0xff, 0x81, 0x07};
