#define dotPencilOp_width 32
#define dotPencilOp_height 32
static unsigned char dotPencilOp_bits[] = {
  0x00, 0x00, 0x00, 0x00, 0x00, 0x00, 0x00, 0x00, 0x00, 0x00, 0x00, 0x00,
  0x00, 0x00, 0x0c, 0x00, 0x00, 0x00, 0x1e, 0x00, 0x00, 0x00, 0x12, 0x00,
  0x00, 0x00, 0x09, 0x00, 0x00, 0x00, 0x09, 0x00, 0x00, 0x80, 0x04, 0x00,
  0x00, 0x80, 0x04, 0x00, 0x00, 0x40, 0x02, 0x00, 0x00, 0x40, 0x02, 0x00,
  0x00, 0x20, 0x01, 0x00, 0x00, 0x20, 0x01, 0x00, 0x00, 0x90, 0x00, 0x00,
  0x00, 0x90, 0x00, 0x00, 0x00, 0x48, 0x00, 0x00, 0x00, 0x48, 0x00, 0x00,
  0x00, 0x24, 0x00, 0x18, 0x00, 0x24, 0x00, 0x18, 0x00, 0x12, 0x00, 0x00,
  0x00, 0x12, 0x00, 0x30, 0x00, 0x0e, 0x00, 0x30, 0x00, 0x06, 0x00, 0x00,
  0x00, 0x06, 0x0c, 0x30, 0x00, 0x00, 0x0c, 0x30, 0x00, 0x30, 0xa0, 0x01,
  0x00, 0x60, 0xb0, 0x02, 0x00, 0x00, 0x00, 0x00, 0x00, 0x00, 0x00, 0x00,
  0x00, 0x00, 0x00, 0x00, 0x00, 0x00, 0x00, 0x00, };
